# xmcd
#
# Track frame offsets: 
#        150
#        16015
#        33193
#        58560
#        84182
#        111803
#        127379
#        153921
#        171165
#        201647
#        225090
#        242390
#        266678
#        287488
#
# Disc length: 4164 seconds
#
# Revision: 2
# Processed by: cddbd v1.5.2PL0 Copyright (c) Steve Scherf et al.
# Submitted via: ExactAudioCopy v0.95b4
#
DISCID=ac10420e
DTITLE=Various Artist - Asia Rave Party 1 CD2
DYEAR=2001
DGENRE=Dance
TTITLE0=Shakuhachi - ...Feel Good (Club Mix)
TTITLE1=DJ T-Kay - Trance Airport (Radio Mix)
TTITLE2=Bach - Back To Bach (Club Mix)
TTITLE3=Anti Funky - Yo Deejay (Extended Orange Mix)
TTITLE4=DJ Visage - The Total Beat (Revolution Club Mix)
TTITLE5=Moskow Brothers - Dura Dura (Tribal Gate Remix)
TTITLE6=Rainmaker - External Fire (Doug Laurent Mix)
TTITLE7=B Squad - Oxygene (Short Cut)
TTITLE8=Morticia - Letter To My Phobia (Original Mix)
TTITLE9=Mikado - Feel The Bass
TTITLE10=Boro vs. Marl - Trick (Radio Mix)
TTITLE11=Overtone - Soulstatic
TTITLE12=Cut 20 - No Way No Back (Dj Per4mer)
TTITLE13=Club Culture - Everybody Wanna Rock
EXTD=YEAR: Others ID3G:   0
EXTT0=
EXTT1=
EXTT2=
EXTT3=
EXTT4=
EXTT5=
EXTT6=
EXTT7=
EXTT8=
EXTT9=
EXTT10=
EXTT11=
EXTT12=
EXTT13=
PLAYORDER=
